<svg id="flat" height="512" viewBox="0 0 512 512" width="512" xmlns="http://www.w3.org/2000/svg"><path d="m320 96v16l-30.4283 42.59962a32 32 0 0 1 -26.03947 13.40038h-10.89209a55.95952 55.95952 0 0 1 -29.48023 34.51l-15.15991 45.49h-80l-16-56a39.856 39.856 0 0 1 -8-24v-12.10986a52.10868 52.10868 0 0 1 23.21-43.36014l24.79-16.53h32l44.53 17.81006 1.1499-2.58008 10.3201-23.22998h24l-4.41992 33.2-.91016 6.8h5.33008l40-32z" fill="#548aff"/><path d="m128 248v120l-24 120h24l48-96 8-24v-120z" fill="#415769"/><path d="m192 56v24a24 24 0 0 1 -24 24 24 24 0 0 1 -24-24v-24z" fill="#f5c99d"/><path d="m144 56h48v-13.57781a18.42218 18.42218 0 0 0 -18.42219-18.42219 18.42223 18.42223 0 0 0 -10.21881 3.094l-19.359 12.906z" fill="#b1712c"/><path d="m240 56-48 8v16l48 8z" fill="#de9400"/><path d="m240 56h48v32h-48z" fill="#eda600"/><path d="m288 48h56v48h-56z" fill="#fac623"/><path d="m344 40h64v64h-64z" fill="#fcd453"/><path d="m320 96v16l-16.66992 23.33008-13.75857 19.2666a32 32 0 0 1 -26.04157 13.40332h-10.8898a55.435 55.435 0 0 0 1.83984-8.6001l4.18994-31.3999h5.33008l17.78027-14.22 22.21973-17.78z" fill="#4976f2"/><path d="m228.528 113.811-20.528 46.189h-40l-16-16v-8h40l14.621-30.952z" fill="#4976f2"/><path d="m111.99727 192.00026a39.93933 39.93933 0 0 0 32.00273 15.99974h54.97108a55.82474 55.82474 0 0 0 24.19228-5.488l-15.16336 45.488h-80z" fill="#486be0"/><path d="m264 88-4.42 33.2-29.9-9.97 10.32-23.23z" fill="#f5c99d"/><path d="m320 96v16l-16.67 23.33-21.55-21.55 22.22-17.78z" fill="#f5c99d"/><path d="m128 248v32l56 88 24 120h24v-136l-24-72v-32z" fill="#556c80"/></svg>